<?xml version="1.0" encoding="UTF-8"?>
<svg id="_レイヤー_1" data-name="レイヤー 1" xmlns="http://www.w3.org/2000/svg" width="915.56" height="895.8" viewBox="0 0 915.56 895.8">
  <defs>
    <style>
      .cls-1 {
        fill: #f6a2b6;
      }

      .cls-2 {
        fill: #f7a6ba;
      }

      .cls-3 {
        fill: #fcb4c5;
      }

      .cls-4 {
        fill: #f8abbd;
      }

      .cls-5 {
        fill: #f4a5b8;
      }

      .cls-6 {
        fill: #f7abbd;
      }

      .cls-7 {
        fill: #f9a6ba;
      }

      .cls-8 {
        fill: #fdf5f2;
      }

      .cls-9 {
        fill: #fdf3ea;
      }

      .cls-10 {
        fill: #f7a8bb;
      }

      .cls-11 {
        fill: #f9abbe;
      }
    </style>
  </defs>
  <path class="cls-9" d="M432.12.76c355.72-20.13,608.69,364.55,418.2,676.25-177.51,290.46-601.02,291.6-782.29,4.05C-116.19,388.84,96.62,19.74,432.12.76ZM360.93,437.13c-5.73.99-20.71,8.59-25.61,12.47-15.33,12.15-16.75,25.21-14.64,44.1,1.34,11.99,8.17,24.29,10.72,35.14,2.3,9.83,1.88,44.64,3.11,46.64-17.15,17.06-33.23,35.98-51.28,52.1-34.32,30.65-84.99,63.04-107.55,103.87-2.4,4.34-11.52,19.83-6.04,23.68,24.1.91,48.21-2.13,72.37-.86,96.52,5.06,267.65,70.24,322.59-41.99,13.25-27.07,14.94-56.27,12.44-85.5-2.86-33.33-10.33-54.19-17.95-85.43-.41-1.67-1.79-5.33.09-6.3,5.01,1.69,8.19,7.84,11.36,11.96,14.48,18.79,34.43,56.78,39.15,79.78,3.29,16.05.25,32.06,0,48.2,16.2.81,15.24-29.49,13.58-40.8-.47-3.18-2.16-6.19-2.71-8.95-5.41-27.16-15.18-49.34-29.54-73.05,31.54,9.4,84.71,43.54,112.72,10.88,14.4-16.79,7.98-37.07,3.88-55.98-2.13-9.8-6.74-21.98-7.77-31.09-.11-1.01.08-2.09,0-3.11-.56-7.09.45-14.63,0-21.76-.91-14.51-2.04-27.71-14.78-37.3-21.38-16.09-54.01-1.34-75.39,6.21-3.2,1.13-7.45,1.85-10.85,2.35,2.01-2.14,4.35-3.95,5.93-6.49,8.27-13.33,18.7-24.57,28.24-37.83,17.82-24.76,40.51-52.29,33.51-85.59-4.22-20.08-25.29-18.26-36.54-25.64-8.31-5.45-24.53-55.4-27.62-67.21-6.88-26.29-9.59-74.03-24.64-95.07-18.68-26.11-48.38,6.17-61.04,22.71-12.03,15.72-25.05,45.62-39.91,56.47-5.63,4.11-14.43,7.22-21.01,10.09-12.91,5.62-66.19,27.27-76.79,25.65-27.24-12.49-60.23-24.1-90.33-26.38-13.97-1.06-36.92-2.88-39.47,14.88-3.72,25.91,17.81,70.65,30.68,93.4,4.82,8.53,21.77,30.41,23.23,37.39,2.63,12.59-4.18,25.29-2.75,38.52,2.5,23.18,36.37,58.01,60.63,59.84Z"/>
  <g>
    <path class="cls-3" d="M632.97,378.06c-2.05-4.26-3.85.77-4.99,2-32.63,35.09-86.95,66.33-134.92,69.51-46.41,3.08-90.45-19.63-132.14-12.44-24.25-1.83-58.12-36.66-60.63-59.84-1.43-13.23,5.38-25.93,2.75-38.52-1.46-6.99-18.4-28.87-23.23-37.39-12.87-22.75-34.41-67.49-30.68-93.4,2.55-17.76,25.51-15.94,39.47-14.88,30.09,2.28,63.08,13.89,90.33,26.38,10.6,1.62,63.89-20.03,76.79-25.65,6.57-2.86,15.38-5.97,21.01-10.09,14.85-10.86,27.87-40.76,39.91-56.47,12.66-16.53,42.37-48.81,61.04-22.71,15.05,21.03,17.76,68.77,24.64,95.07,3.09,11.81,19.31,61.76,27.62,67.21,11.25,7.38,32.32,5.56,36.54,25.64,7,33.3-15.69,60.83-33.51,85.59Z"/>
    <g>
      <path class="cls-3" d="M356.26,606.58c7.74,4.51,13.87,6.82,23.33,6.21-4.73,27.73,32.25,79.81,61.92,70.48,15.15-4.76,36.93-53.9,44.05-69.43,9.93-21.67,18.49-44.07,26.89-66.38l26.3-4.73c11.65,27.57,18.78,57.4,22.72,87.16,1.12,8.52,1.84,17.09,3.17,25.59l-.06,56.81c-54.94,112.23-226.06,47.05-322.59,41.99-24.15-1.27-48.26,1.77-72.37.86-5.48-3.86,3.64-19.34,6.04-23.68,22.56-40.82,73.24-73.21,107.55-103.87,18.05-16.12,34.13-35.04,51.28-52.1.09.14,2.33-.65,3.05,1.14,6.13,15.14,1.84,20.12,18.71,29.96Z"/>
      <path class="cls-10" d="M707.59,507.09c4.11,18.91,10.52,39.18-3.88,55.98-28.01,32.67-81.18-1.48-112.72-10.88,14.36,23.71,24.12,45.89,29.54,73.05-2.13.36-6.17-4.17-7.71-3.07-.32.23-.65,4.4-3.17,4.62-4.72-22.99-24.67-60.99-39.15-79.78-3.17-4.12-6.35-10.27-11.36-11.96-1.88.98-.49,4.64-.09,6.3,7.62,31.24,15.09,52.1,17.95,85.43-6.16-1.54-9.94,2.49-15.55,3.11-3.93-29.76-11.06-59.6-22.72-87.16l-26.3,4.73c-8.4,22.31-16.97,44.72-26.89,66.38-7.11,15.53-28.9,64.67-44.05,69.43-29.68,9.33-66.66-42.75-61.92-70.48-9.46.61-15.58-1.7-23.33-6.21.27-3.41,5.78-2.71,6.22-3.13.52-.5-2.6-12.09-3.11-13.97,4.25.88,5.23,4.96,10.48,5.86,15.35,2.62,48.85-14.71,62.59-22.96,2.7,3.21,6.75,6.19,6.22,10.88-12.8,8.78-25.3,17.93-38.78,25.73-8.76,14.01,1.63,33.5,10.84,44.97,5.86,7.3,17.38,20.59,27.26,14.88,11.87-6.86,32.72-58.5,38.73-73.19,3.45-8.43,19.39-45.68,18.01-51.78-.38-1.67-3.08-.88-3.2-1.03-.36-.44-4.22-9.88-4.35-10.43-1.93-7.98,1.25-8.1,5.91-12.89,11.47,13.21,31.77,12.39,46.13,4.93,4.57-2.38,10.62-9.18,14.5-9.59,4.11-.44,7.36,1.57,10.88,3.11,29.41,12.86,64.22,34.27,96.31,39.7,30.12,5.1,36.49-15.9,31.16-41.26,11.43,4.25,11.99.33,15.55-9.33Z"/>
      <path class="cls-10" d="M493.06,449.57c-2.78,16.06-15.05,5.03-7.36,23.76.98,2.4.38,5.02,4.25,4.22-6.01,8.61-6.12,19.83-3.11,29.54l-9.33,6.22c-3.47-4.99-8.69-1.52-13.15-1.48-8.68.08-28.75,2.85-30.42-8.71-2.91-20.07,28.62-9.23,37.32-15.5,15.7-11.31-8.23-17.54-16.73-20.5-27.3-9.52-71.56-17.6-98.84-6.46-27.73,11.32-13.84,42.15-8.76,63.53-9.52-3.36-9.28-3.84-15.55,4.66-2.54-10.85-9.38-23.15-10.72-35.14-2.11-18.9-.69-31.95,14.64-44.1,4.9-3.89,19.89-11.49,25.61-12.47,41.69-7.19,85.73,15.51,132.14,12.44Z"/>
      <path class="cls-5" d="M632.97,378.06c-9.54,13.25-19.97,24.5-28.24,37.83-1.58,2.54-3.92,4.35-5.93,6.49,3.4-.49,7.65-1.22,10.85-2.35,2.89,10.24-5.23,12.25-6.22,20.21-6.73,2.82-44.44,21.32-43.43,27.01.46,2.56,8.37,5.59,7.67,13.41-.21,2.4-4.22,15.56-7.77,13.99-.24-12.34-8.47-26.83-21.35-29.18-15.54-2.83-38.74-2.06-48.61,12.08-3.87.81-3.27-1.82-4.25-4.22-7.69-18.74,4.58-7.7,7.36-23.76,47.97-3.18,102.29-34.41,134.92-69.51,1.15-1.23,2.94-6.26,4.99-2Z"/>
      <path class="cls-7" d="M609.66,420.03c21.37-7.55,54-22.3,75.39-6.21,12.74,9.59,13.87,22.79,14.78,37.3-8.62-5.47-9.22-4.97-18.65-1.55-.66-7.39-.94-16.31-8.2-20.56-14.95-8.73-53.83,4.66-69.52,11.23.99-7.96,9.1-9.97,6.22-20.21Z"/>
      <path class="cls-4" d="M346.94,524.19c5.4,22.71,6.46,43.6,12.44,65.29.52,1.88,3.63,13.47,3.11,13.97-.44.43-5.95-.28-6.22,3.13-16.87-9.84-12.59-14.82-18.71-29.96-.72-1.78-2.96-1-3.05-1.14-1.23-1.99-.8-36.81-3.11-46.64,6.27-8.5,6.02-8.02,15.55-4.66Z"/>
      <path class="cls-11" d="M699.82,451.12c.45,7.14-.56,14.67,0,21.76l-1.57.83,1.57,2.28c1.03,9.11,5.64,21.29,7.77,31.09-3.55,9.65-4.11,13.58-15.55,9.33-5.5-26.15-8.4-38.84-10.88-66.85,9.43-3.42,10.04-3.92,18.65,1.55Z"/>
      <path class="cls-6" d="M577.01,626.79c2.51,29.23.81,58.43-12.44,85.5l.06-56.81c-1.33-8.5-2.05-17.07-3.17-25.59,5.61-.62,9.38-4.65,15.55-3.11Z"/>
      <path class="cls-11" d="M620.54,625.23c.55,2.76,2.24,5.77,2.71,8.95,1.66,11.31,2.62,41.61-13.58,40.8.24-16.13,3.29-32.14,0-48.2,2.52-.22,2.85-4.39,3.17-4.62,1.54-1.1,5.58,3.43,7.71,3.07Z"/>
      <path class="cls-7" d="M699.82,476l-1.57-2.28,1.57-.83c.08,1.02-.11,2.1,0,3.11Z"/>
      <path class="cls-8" d="M477.52,513.3c.84,1.21,4.74,11.61,4.79,13.26.33,9.21-14.3,20.04-21.18,25.54-8.69,6.95-19.21,14.57-28.69,20.27-13.74,8.25-47.24,25.58-62.59,22.96-5.25-.9-6.23-4.98-10.48-5.86-5.97-21.69-7.03-42.58-12.44-65.29-5.08-21.37-18.97-52.2,8.76-63.53,27.28-11.14,71.54-3.07,98.84,6.46,8.5,2.97,32.44,9.19,16.73,20.5-8.7,6.27-40.23-4.57-37.32,15.5,1.67,11.56,21.74,8.79,30.42,8.71,4.46-.04,9.68-3.51,13.15,1.48Z"/>
      <path class="cls-8" d="M681.16,449.57c2.49,28,5.38,40.69,10.88,66.85,5.33,25.36-1.04,46.35-31.16,41.26-32.09-5.43-66.9-26.84-96.31-39.7l4.66-15.55c.25,0,1.32-1.4,2.49-1.42,12.11-.24,32.14,1.87,30.26-14.96-1.69-15.13-24.58-6.12-34.3-5.38.7-7.82-7.22-10.85-7.67-13.41-1.01-5.69,36.7-24.19,43.43-27.01,15.7-6.57,54.58-19.96,69.52-11.23,7.27,4.25,7.55,13.16,8.2,20.56Z"/>
      <path class="cls-8" d="M491.51,542.84c.12.15,2.82-.64,3.2,1.03,1.38,6.1-14.57,43.35-18.01,51.78-6.01,14.69-26.86,66.33-38.73,73.19-9.88,5.71-21.4-7.58-27.26-14.88-9.2-11.47-19.6-30.95-10.84-44.97,13.49-7.8,25.98-16.95,38.78-25.73,17.45-11.97,32.32-22.86,49.11-35.69,1.85-1.41,4.5-1.41,3.74-4.73Z"/>
      <path class="cls-8" d="M559.91,494.65c.03,1.45.23,3.37,0,4.66-.89,5.03-6.18,10.18-6.22,15.55-3.88.42-9.93,7.22-14.5,9.59-14.35,7.46-34.66,8.28-46.13-4.93-1.15-1.33-5.59-10.43-6.22-12.44-3.02-9.7-2.91-20.92,3.11-29.54,9.87-14.13,33.07-14.9,48.61-12.08,12.87,2.34,21.11,16.83,21.35,29.18Z"/>
      <path class="cls-1" d="M486.85,507.09c.62,2.01,5.07,11.11,6.22,12.44-4.66,4.79-7.84,4.9-5.91,12.89.13.55,4,9.99,4.35,10.43.76,3.32-1.9,3.31-3.74,4.73-16.8,12.83-31.66,23.72-49.11,35.69.54-4.7-3.52-7.67-6.22-10.88,9.49-5.7,20-13.32,28.69-20.27,6.88-5.5,21.51-16.33,21.18-25.54-.06-1.65-3.95-12.05-4.79-13.26l9.33-6.22Z"/>
      <path class="cls-5" d="M569.24,502.42l-4.66,15.55c-3.52-1.54-6.77-3.55-10.88-3.11.03-5.37,5.33-10.52,6.22-15.55,2.81,1.02,6.37,3.1,9.33,3.11Z"/>
      <path class="cls-2" d="M569.24,502.42c-2.96-.01-6.52-2.09-9.33-3.11.23-1.29.03-3.21,0-4.66,3.55,1.57,7.56-11.6,7.77-13.99,9.72-.73,32.61-9.75,34.3,5.38,1.88,16.83-18.15,14.72-30.26,14.96-1.17.02-2.23,1.42-2.49,1.42Z"/>
    </g>
  </g>
</svg>