<?xml version="1.0" encoding="UTF-8"?>
<svg id="_レイヤー_1" data-name="レイヤー 1" xmlns="http://www.w3.org/2000/svg" width="1016.97" height="588.66" viewBox="0 0 1016.97 588.66">
  <defs>
    <style>
      .cls-1 {
        fill: #fae0ee;
      }

      .cls-2 {
        fill: #f9b5c0;
      }

      .cls-3 {
        fill: #e8a1af;
      }

      .cls-4 {
        fill: #e69eac;
      }

      .cls-5 {
        fill: #f5b7c1;
      }

      .cls-6 {
        fill: #eba4b3;
      }

      .cls-7 {
        fill: #e48d9d;
      }

      .cls-8 {
        fill: #fce5f0;
      }

      .cls-9 {
        fill: #fbe5f2;
      }

      .cls-10 {
        fill: #e99fad;
      }

      .cls-11 {
        fill: #f2d8e1;
      }

      .cls-12 {
        fill: #efd9de;
      }

      .cls-13 {
        fill: #e99eac;
      }

      .cls-14 {
        fill: #edcbd5;
      }

      .cls-15 {
        fill: #f2dde3;
      }

      .cls-16 {
        fill: #e3909f;
      }

      .cls-17 {
        fill: #e9a3b2;
      }

      .cls-18 {
        fill: #e9afbc;
      }

      .cls-19 {
        fill: #efd3dc;
      }

      .cls-20 {
        fill: #e9a2af;
      }
    </style>
  </defs>
  <path class="cls-11" d="M248.8,515.92c1.68,8.61-5.82,2.77-9.98,7.47-3.55,4.01-1.87,13.9-6.52,17.82-3.86-10.06-4.81-18.64-14.24-24.05,8.08-6.25,14.28-11.39,13.17-24.05l7.5,17.92,10.07,4.89Z"/>
  <path class="cls-11" d="M905.49,80.4c1.68,8.61-5.82,2.77-9.98,7.47-3.55,4.01-1.87,13.9-6.52,17.82-3.86-10.06-4.81-18.64-14.24-24.05,8.08-6.25,14.28-11.39,13.17-24.05l7.5,17.92,10.07,4.89Z"/>
  <path class="cls-11" d="M974.6,133.62c1.68,8.61-5.82,2.77-9.98,7.47-3.55,4.01-1.87,13.9-6.52,17.82-3.86-10.06-4.81-18.64-14.24-24.05,8.08-6.25,14.28-11.39,13.17-24.05l7.5,17.92,10.07,4.89Z"/>
  <g>
    <path class="cls-5" d="M170.4,166.5c-4.65,15.34-.94,31.92-3.19,48.26-2.57,18.62-12.73,32.93-18.28,49.87-6.33,19.34-13.43,64.27-.6,80.55,5.47,6.95,19.73,7.26,14.53,21.62-2.73,4.47-62.28,2.01-72.7,2.37-11.32.39-28.71,5.12-39.7,4.72-7.46-.27-16.65-13.48-25.18-7.28-1.7-4.1-3.35-5.96-4.94-5.57-2.47,5.76-5.85,6.55-8.25.51,14.22-18.48-2.45-28.7-4.42-49.38-5.01-52.59,22.33-83.81,52.76-116.58,8.39-9.03,24.03-20,30.82-29.09,3.13,3.12,15.11,16.02,15.03,19.5-3.32,5.97-4.33,10.86-1.27,17.19,23.43,40.54,31.6,50.73,34.61-6.29,2.99-13.11,14.11-44.48,28.59-35.47,4.37-.68,5.3,1.45,2.2,5.07Z"/>
    <path class="cls-13" d="M25.28,366.62c-2.96,7.16-9.57,13.32-12.12,22.75-11.35,41.88,18.88,73.72,53.03,78.31,83.42,11.2,160.17-81.78,194.74-160.14,6.17-13.98,15.77-50.88,24.8-57.55,2.7-2,4.36-3.15,7.79-2.4-1.17,51.96-.58,102.17,11.63,152.52l16.94,50.11c12.6-75.05,52.96-157.27,109.28-199.62,24.37-18.33,68.77-39.97,97.48-27.13,16.53,7.39,18.68,34.18,2.92,41.47-13.23,6.13,3.98-18.31,3.59-21.22-9.98-24.97-47.83-12.56-65.22-4.2-77.25,37.15-134.68,152.78-143.52,245.02-2.68,28.01-22.13-20.97-24.68-27.54-18.16-46.89-28.71-99.6-28.22-151.15l-47.43,85.91c-39.4,67.24-134.88,132.09-199.92,73.67-23.42-21.04-37.98-79.46-14.29-103.86.14-.14,1.96.2,3.67-.87.66-.41.62-3.63,2.21-4.16,7.32-2.45,10.33,2.81,7.31,10.1Z"/>
    <path class="cls-4" d="M684.9,343.81c-3.45-4.36-3.79.54-4.31,3.85-17.08,110.41-89.16,261.32-205.14,238.74-24.21-4.72-47.18-35.12-26.91-60.15,6.62,5.1-.26,10.25-1.03,16.58-4.32,35.24,37.08,38.92,58.19,36.55,87.93-9.85,158.57-161.6,165.75-252.32,1.5-18.94,1.35-29.79-18.3-26.16-5.44,1-14.93,11.97-16.6,9.98-5.31-6.31,13.28-16.24,16.96-17.15,20.53-5.03,31.64,12.32,41.12,30.02,17.81,33.25,26.16,72.31,37.55,108.75,5.87-36.03,12.5-113.17,35.11-139.43,9.27-10.76,24.53-10.11,28.85,4.98,4.25,14.84-12.5-1.93-21.25,6.33-14,13.22-33.29,108.72-34.98,131.93-.6,8.19,2,39.77-2.11,43.2-6.31,3.14-13.35-3.48-16-9.74-7.29-17.24-12.24-51.27-18.7-72.18-5.61-18.14-13.75-35.22-18.21-53.78Z"/>
    <path class="cls-3" d="M414.46,113.31c21.68-13.34,45.18-26.88,70.94-22.19,20.34,3.7,34.73,23.68,24.04,46.75-4.18,9.02-11.97,9.43-13.61,18.49,59.32-12.88,135.71-32.55,186.92,16.45,6.41,6.13,17.49,25.82,23.17,26.69,28.02-5.46,57.42-14.69,85.67-17.76,22.64-2.46,60.67-3.21,82.38,3.83,17.69,5.73,39.84,23.52,37,47.4-3.92,33.02-51.92,36.38-59.74,6.5-4.11-15.69,10.57-33.45,16.19-14.7-17.76-3.06-11.48,20.09-.12,24.2,29.15,10.57,50.26-27.86,20.65-49.11-22.74-16.32-72.16-13.47-98.58-10.54-26.75,2.97-53.08,9.51-78.98,17.45-5.77,9.24,7.53,22.68.92,30.68-6.17-4.1-10.5-11.57-12.99-22.41-3.79.91-7.53.78-11.2-.39-5.82,2.13-11.88,3.62-17.56,6.37-4.15,2.02-24.51,16.13-26.41,13.88-.58-4.72.25-7.02,3.19-10.24,4.25-4.66,28.84-14.2,36.38-17.61.06-4.85,2.85-7.41,8.35-7.69-7.75-15.82-26.5-32.39-41.72-37.88-34.17-12.33-63.02-12.97-98.56-10.16-48.06,8.68-91.87,29.88-138.53,44.33-31.71,9.82-75.12,27.09-105.54,8.87,2.78-8.16,7.57-18.68,10.99-7.6-.56,3.07,10.18,4.54,17.13,4.63,16.56.21,30.99-2.89,47.08-7.24,28.78-7.77,74.6-20.15,98.77-33.55l-3.74-9.37c1.3-6.13,19.37-15.74,25.45-15.26,7.71-56.86-66.18-21.39-88.89-8.39l-3.46-1.74c-3.74-2.07-2.27-6.29,4.4-12.67Z"/>
    <path class="cls-2" d="M122.02,27.18c2.35-.39,23.02-5.78,24.16-6.37,11.36-5.82,19.18-39.66,27.55-6.34,5.09,20.25-.11,31.89,20.96,42.33.79,16.49-8.52,28.64-15.5,41.3-5.46,2.77-9.63,6.34-13.97,11.79-18.43,11.76-47.5,2.6-60.65-15.46-17.97-4.44-20.93-26.98.26-18.36,1.96-.86,16.34-38.15,13.5-44.91l3.7-3.99Z"/>
    <path class="cls-7" d="M411.73,128.88c-11.01,10.54-17.5,17.19-36.85,27.49-12.2,10.13-31.08,33.36-52.55,41.73-5.7,2.22-3.63,3.12-4.62-1.2-.71.38-3.07-1.05-4.04.47-.02,10.17-1.29,6.1-6.95,7.13-48.5,8.81-106.85,24.63-136.33-38-.78-1.65-1.51-3.36-2.2-5.07-10.47-8.62-22.76,12.72-26.1,29.56-3.59,3.61-6.5.93-4.68-4.23l-3.39-5.46c8.56-21.07,4.68-22.84-11.62-5.33l-4.78-1.87c-7.5,8.86-17.18-.48-8.8-7.6,1.07-6.94,31.69-24.33,34.53-22.64,1.03.61,1.96,1.46,2.85,2.37-1.21-6.77.25-7.54,4.4-2.53,3.15-6.27,8.66-3.14,10.99,2.53,8.15-9.39,12.54-10.23,13.19-2.53l2.38-2.76c11.69,3.52,23.6,6.25,35.73,8.19l3.67,4.7c3.48,2.54,1.56,3.52-2.2,5.07l-2.11,3.11c-10.22-.25-20.32-1.76-30.29-4.52l-2.78,3.94v2.53l4.4,5.07c32.36,36.17,68.54,36.5,109.94,22.8.96-7.39,6.09-9.08,15.39-5.07,37.83-17.75,69.55-51.31,105.54-73.46"/>
    <path class="cls-6" d="M86.84,19.58c1.27.39,3.21-.42,4.4,0l2.2,2.53c1.13.45,3.16-.41,4.4,0l2.2,2.53c2.84.81,6.03,2.12,8.8,2.53,2.29,1.48,4.49,2.04,6.6,0,2.15-.1,4.57.34,6.6,0,5.06,19.9-10.62,36.48-13.37,55.51l-14.09-4.88c-3.93,7.5,8.87,9.55,12.65,12.63,2.68,2.18,3.11,5.83,8.05,9.11,11.88,7.87,33.64,15.19,46.17,7.22,4.46-2.84,11.09-16.23,17.76-8.67-.87,1.57-1.33,3.49-2.2,5.07l-2.2,2.53c-.72,1.34-2.68,4.14-2.2,5.07.87,1.21,1.6,1.21,2.2,0,2.82-.91,7.48-6.28,11.66-8.11,15.06-6.61,30.05-6.89,34.03,15.01,1.61,8.84.46,29.04,2.69,36.17,5.33,5.64-6.66,11.17-8.8,5.07.62-1.74,1.57-3.34,2.2-5.07-3.15-4.7-4.18-11.52-3.08-20.48.87-33.85-17.49-29.05-35.12-13.1,17.16,3.55,9.63,19.53-3.57,23.45-9-2.7-6.4,1.34-13.19,2.53,4.14-15.34,1.65-20.5-7.49-15.47,1.67,6.75.5,11.07-3.5,12.93-.88-.03-3.06,1.99-4.4,2.53-15.32-4.46-20.44-11.77-15.36-21.9-28.34-13.37-37.91-.41-28.73,38.91l-4.29,3.26c-3.16,3.66-5,2.55-4.4-2.53,3.17-14.88-11.12-38.98,6.22-52.35.44-2.09-.88-4.17-1.82-5.91l-4.4-5.07c-.83-1.61-1.39-3.43-2.2-5.07l-2.2-2.53c-.25-.69.22-1.74,0-2.53l-2.2-2.53c-.55-3.99-.21-10.85,0-15.2l2.2-2.53c.07-1.68-.1-3.39,0-5.07,1.76-3.15,1.85-6.99,0-10.13-.08-.83.12-1.72,0-2.53l-2.2-2.53c-.27-1.54.25-3.5,0-5.07l-2.2-2.53c-.41-2.21.33-5.24,0-7.6l-2.2-5.07c-.28-3.74.11-7.61.02-11.38l2.18-1.28,2.2,2.53Z"/>
    <path class="cls-15" d="M682.72,207.03c3.37-4.64-2.04-10.58-4.64-13.68-32.54-38.86-71.82-40.54-115.45-39.74-4.08.07-7.79-2.24-11.84-2.31,37.58-6.79,69.86-9.61,106.12,8.2,10.94,5.38,32.29,23.38,37.33,35.57,4.46,10.8-5.33,9.16-11.52,11.96Z"/>
    <path class="cls-16" d="M137.42,186.77c1.63,6.04,3.45-1.94,4.34-3.79,5.95-12.28,9.66-29.56,25.18-26.75,2.6.29.77,4,1.26,5.21-33.17,6.01-19.17,55.15-33.26,76.93-1.54,2.37-2.05,4.29-5.2,4.27-6.28-.03-29.28-34.18-29.64-42.07-.22-4.84,3.01-10.41,2.3-14.64-.2-1.2-13.52-9.69-11.17-19.42.64-.86,2.16-2.36,2.2-2.53,1.52.68,2.89,1.88,4.4,2.53,3.16-4.59,8.21-5.36,10.99,0-.25,6.55,3.66,8.3,8.8,7.6,2.61,6.82-4.4,18.87-10.99,17.73l-2.2,2.53c1.54-.73,3.6-1.55,4.7-.43,7.46,7.55,25.56,27.97,19.48,38.43,1.89,1.26,3.36,1.26,4.4,0-5.59-7.61-5.73-22.25,2.2-27.86,1.13-2.63,1.58-5.14,0-7.6-5.53-4.24-4.43-10.37,2.2-10.13Z"/>
    <path class="cls-18" d="M308.92,186.77c-6.35,2.98-9.64,3.16-15.39,5.07-3.85-14.67,7.37-31.14,3.98-43.85-3.3-12.34-24.02-10.95-32.39-5.35-4.85,3.25-10.79,17.83-15.51,9.95,10.85-23.98,53.56-29.2,55.02,5.15.4,9.36-8.15,27.39,4.3,29.03Z"/>
    <path class="cls-17" d="M499.56,362.05c21.36-7.4,16.28,24.84-.38,22.44-8.8-1.27-7.45-19.73.38-22.44Z"/>
    <path class="cls-19" d="M214.37,158.9c3.99-.38,7.4.37,8.8-5.07.23.75,5.26,1.95,4.4,6.28-14.34,10.65-32.46.19-48.37,1.32l-8.77-15.2c14.74,9.64,26.73,14.29,43.96,12.66Z"/>
    <path class="cls-14" d="M687.12,214.63c4.19-1.54,8.54-8.61,14.45-2.79l9.74,25.59c-2.79,3.38-2.17,3.08-5.59.12-7.7-6.67-9.4-20.13-18.59-22.92Z"/>
    <path class="cls-2" d="M89.04,65.18c.18-3.08.28-7.13,0-10.13,3.3.81,3.44,9.09,0,10.13Z"/>
    <path class="cls-2" d="M115.43,27.18c-.72,4.03-5.06,2.98-6.6,0,1.96.29,4.53.09,6.6,0Z"/>
    <path class="cls-2" d="M84.64,34.78c-.04-.28-1.86-.53-2.2-5.07l2.2,5.07Z"/>
    <path class="cls-2" d="M86.84,19.58l-2.2-2.53c2.72-.2,2.05,2.49,2.2,2.53Z"/>
    <path class="cls-2" d="M93.44,22.12l-2.2-2.53c1.72.61,2.05,2.47,2.2,2.53Z"/>
    <path class="cls-2" d="M100.04,24.65l-2.2-2.53c1.73.58,2.05,2.49,2.2,2.53Z"/>
    <path class="cls-19" d="M183.59,169.04l-4.4-5.07c2.67.53,3.21,3.74,4.4,5.07Z"/>
    <path class="cls-2" d="M172.6,110.77c.7-.16,1.53.22,2.2,0l-1.1,2.48-1.1-2.48Z"/>
    <path class="cls-2" d="M174.8,105.71l2.2-2.53c-.61,1.11-1.81,1.81-2.2,2.53Z"/>
    <path class="cls-2" d="M97.84,105.71c-.35-.64-2.78-1.93-4.4-5.07l4.4,5.07Z"/>
    <path class="cls-2" d="M91.24,95.58c-.24-.48-1.66-1.04-2.2-2.53l2.2,2.53Z"/>
    <path class="cls-2" d="M86.84,44.91c-.03-.18-1.82-.46-2.2-2.53l2.2,2.53Z"/>
    <path class="cls-2" d="M89.04,90.51c-.05-.17-1.92-.49-2.2-2.53l2.2,2.53Z"/>
    <path class="cls-2" d="M86.84,72.78c.09-1.93,2.19-2.35,2.2-2.53l-2.2,2.53Z"/>
    <path class="cls-2" d="M89.04,52.51c-.03-.18-1.86-.61-2.2-2.53l2.2,2.53Z"/>
    <path class="cls-12" d="M502.42,136.1c1.17-9.64-1.03-14.94-8.03-19.87-32.43-22.84-88.91,27.23-119.5,40.14,7.54-6.22,32.37-23.52,36.95-29.65,23.89-14.27,46.02-29.56,74.1-26.08,16.88,2.1,28.26,17.81,16.49,35.47Z"/>
    <path class="cls-8" d="M97.84,166.5c-.73-32.19-14.29-56.67,25.1-50.45,3.22.51,26.28,9.55,21.07,14.97l-10.96-2.52.02,7.51c5.35.42,13.05,1.79,13.15,10.22-12.85,5.27-23.19,16.08-37.38,20.26-6.54,1.93-5.13,2.55-10.99,0Z"/>
    <path class="cls-1" d="M216.57,153.84c-15.17,2.33-28.19-6.06-41.78-10.13-4.27-7.17-1.44-3.77,2.2-6.22,4.66-3.14,7.81-3.37,6.59-11.5l-15.37-1.27c8.55-12.21,31.56-29.91,43.89-17.66,5.77,5.73,7.52,38.32,4.47,46.77Z"/>
    <path class="cls-9" d="M117.63,174.1c3.72-4.19,24.17-22.61,28.57-17.72-3.63,10.85-6.56,18.73-8.79,30.38-.62,3.25-1.57,5.19-2.2,10.13,1.64,2.3,1.25,5.2,0,7.6-.98,9.18-2.14,18.58-2.2,27.86-1.06,1.24-2.53,1.24-4.4,0-1.25-13.94-21.52-29.33-24.19-38l2.2-2.53c3.21-6.25,6.48-12.64,10.99-17.73Z"/>
    <path class="cls-8" d="M150.61,143.7l-1.26-17.91,15.31-2.5c4.41,9.03,5.83,17.46-3.06,22.94-5.94,1.04-9.34-2.47-10.99-2.53Z"/>
    <path class="cls-7" d="M135.22,204.5c.26-2.44-.3-5.2,0-7.6,3.45.87,2.38,5.71,0,7.6Z"/>
    <polygon class="cls-5" points="133.02 232.36 131.9 234.88 128.62 232.36 133.02 232.36"/>
    <path class="cls-5" d="M104.43,194.37c-.45-1.47.7-2.88,2.2-2.53-.52,1.01-1.43,1.78-2.2,2.53Z"/>
    <path class="cls-20" d="M996.05,397.06c-3.31.11-28.46,51.67-44.44,55.31-3.73.85-5.04-.08-7.23-3.43v-38c0-17.49,24.82-46.86,33.9-62.27,10.52-17.86,40.25-72.14,38.63-92.01-2.27-27.82-28.99,1.29-36.28,11.12-18.7,25.21-51.3,125.73-47.24,114.02,0,0-12.78,40.97-27.94,57.01-13.57,14.35-37.99,31.49-35.83-4.79,67.29-8.41,69.58-114.44-3.48-53.65-9.74,11.55-18.25,24.3-25.51,38.25,3.11-26.75-8.51-58.24-34.77-46.95-8.2,3.37-11.78,6.76-11,17.75-7.64-5.89-17.63,6.81-22,13.89-28.59,46.39,13.99,103.82,52.78,45.61,8.32-12.48,2.33-17.78,20.87-19.03,1.87,62.46,57.96,39.86,79.2,5.12,10.55,65.66,61.27-1.05,72.57-30.42,1.48-3.84-.52-7.6-2.22-7.54ZM955.27,364.37c13-29.66,26.03-87,51.18-112.01-2.46,44.96-47.85,115.14-51.34,118.86-3.87.04-1.08-4.04.16-6.85ZM791.63,465.49c-16.46-1.76-9.96-48.37-1.35-59.29,1.47-1.86,2.91-2.94,4.53-1.57.24.2.57,4.18,2.18,6.26,7.73,9.98,13.81,14.63,24.26,20.37-4.63,10.79-18.12,35.45-29.62,34.22ZM825.63,422.35c-16.51,6.22-32.81-34.31-19.8-41.83,23.2-5.66,20.45,23.28,19.8,41.83ZM904.79,374.23c3.07,23.89-16.19,42.15-35.16,45.57-3.35-3.75,22.7-51.2,35.16-45.57Z"/>
    <path class="cls-10" d="M570.49,393.11c13.12-18.69,45.37-69.74,48.03-91.76.8-6.62.35-12.15-3.93-17.12-12.69-8.82-35.72,21.5-42.73,31.92-17.4,25.85-31.81,60.53-41.87,91.08-6.4,19.43-3.4,26.56-16.52,44.3-19.14,25.9-44.04,41.1-28.12-9.6,2.58-8.23,14.1-28.73,14.52-34,.27-3.34-5.22-9.87-7.79-10.65-8.74-2.64-14.72,21.21-18.68,28.35-6.77,12.18-30.69,47.4-42.42,49.94-4.1.89-3.17-.38-3.34-3.81-1.13-23.48,9.85-37.13,19.89-55.76-2.24-8.01-9.59-15.96-15.62-7.76-9.7,14.76-37.11,63.6-51.99,66.92-2.66.59-4.51.74-6.22-2.07-9.13-31.18,38.46-89.67,64.4-76.7,4.34,2.17,6.23,8.84,11.54,8.2-2.65-24.3-33.08-20.19-47.67-13.13-21.17,10.25-62.69,60.19-41.46,86.7,17.55,21.91,40.37-9.04,50.67-25.42-1.51,58.06,35.35,23.22,53.84-.01-5.07,26.9,12.91,42.41,32.86,26.43,3.66-2.93,21.54-27.27,24.32-23.88,1.32,51.94,47.72,27.24,61.53-3.83-.05-3.29-2.47-3.51-5.45-1.26-8.84,6.68-20.55,30.72-34.87,25.08-8.51-3.35-5.46-35.53-3.1-43.48,1.08-3.62,25.15-31.51,30.19-38.68ZM593.64,305.79c1.75-2.37,14.3-17.99,16.51-15.15,4.86,6.23-12.04,41.63-15.79,48.91-12.83,24.91-29.95,47.75-45.75,70.13,12.13-33.13,24.69-76.43,45.03-103.89Z"/>
  </g>
</svg>